<svg xmlns="http://www.w3.org/2000/svg" width="200" height="283" viewBox="0 0 200 283" fill="none"><g clip-path="url(#clip0_49_142)"><path d="M0 0H200V182.165C200 237.359 155.194 282.165 100 282.165C44.8063 282.165 0 237.351 0 182.165V0Z" fill="#CF9A2C"></path><path d="M105.448 115.108C106.022 112.676 104.516 110.24 102.084 109.666C99.6529 109.092 97.2165 110.598 96.6426 113.029C96.0688 115.461 97.5747 117.897 100.006 118.471C102.438 119.045 104.874 117.539 105.448 115.108Z" fill="white"></path><path d="M90.8389 138.009C93.2704 137.435 94.7764 134.999 94.2025 132.567C93.6286 130.136 91.1922 128.63 88.7606 129.204C86.3291 129.778 84.8231 132.214 85.397 134.646C85.9709 137.077 88.4073 138.583 90.8389 138.009Z" fill="white"></path><path d="M116.242 142.63C118.55 141.674 119.646 139.028 118.69 136.72C117.734 134.412 115.088 133.316 112.78 134.272C110.471 135.228 109.375 137.874 110.331 140.182C111.288 142.49 113.934 143.586 116.242 142.63Z" fill="white"></path><path d="M90.0758 95.5981C93.7223 99.2447 94.1446 104.751 94.1446 104.751C94.1446 104.751 88.6383 104.337 84.9917 100.682C81.3452 97.0357 80.9229 91.5293 80.9229 91.5293C80.9229 91.5293 86.4292 91.9435 90.0758 95.5981Z" fill="white"></path><path d="M123.228 101.73C119.581 105.376 114.075 105.799 114.075 105.799C114.075 105.799 114.489 100.292 118.144 96.6458C121.79 92.9993 127.297 92.577 127.297 92.577C127.297 92.577 126.882 98.0833 123.228 101.73Z" fill="white"></path><path d="M138.772 147.787C133.607 147.787 129.424 144.189 129.424 144.189C129.424 144.189 133.607 140.591 138.772 140.591C143.937 140.591 148.12 144.189 148.12 144.189C148.12 144.189 143.937 147.787 138.772 147.787Z" fill="white"></path><path d="M80.5411 122.846C80.5411 128.011 76.9433 132.194 76.9433 132.194C76.9433 132.194 73.3455 128.011 73.3455 122.846C73.3455 117.68 76.9433 113.498 76.9433 113.498C76.9433 113.498 80.5411 117.68 80.5411 122.846Z" fill="white"></path><path d="M75.6762 170.121C80.8415 170.121 85.0241 173.719 85.0241 173.719C85.0241 173.719 80.8415 177.317 75.6762 177.317C70.5109 177.317 66.3284 173.719 66.3284 173.719C66.3284 173.719 70.5109 170.121 75.6762 170.121Z" fill="white"></path><path d="M68.3021 151.36C64.6555 155.007 59.1492 155.429 59.1492 155.429C59.1492 155.429 59.5634 149.923 63.218 146.276C66.8646 142.63 72.371 142.207 72.371 142.207C72.371 142.207 71.9568 147.714 68.3021 151.36Z" fill="white"></path><path d="M103.695 137.456H99.0662V195.687H103.695V137.456Z" fill="white"></path><path d="M109.697 176.033V171.404H122.732L126.168 176.033H109.697Z" fill="white"></path><path d="M97.8398 100.983L101.113 104.256L115.244 90.1324L108.666 90.1567L97.8398 100.983Z" fill="white"></path><path d="M74.1819 134.882V139.519H55.7705L60.4404 134.882H74.1819Z" fill="white"></path><path d="M132.007 136.271H127.378V124.454L132.015 121.01L132.007 136.271Z" fill="white"></path><path d="M137.424 105.669L102.355 140.737L99.0742 137.464L130.781 105.758L137.424 105.669Z" fill="white"></path><path d="M146 122.765L107.651 161.106V154.56L139.357 122.854L146 122.765Z" fill="white"></path><path d="M128.702 154.503L118.2 144.01L121.482 140.729L135.215 154.471L128.702 154.503Z" fill="white"></path><path d="M112.548 115.691L97.8398 100.983L101.113 97.7097L115.796 112.385L112.548 115.691Z" fill="white"></path><path d="M98.9281 129.31L68.6187 99.0011H75.1646L102.177 126.005L98.9281 129.31Z" fill="white"></path><path d="M118.972 167.766L107.651 179.087V172.533L119.029 161.155L118.972 167.766Z" fill="white"></path><path d="M55.9817 122.765L94.3233 161.106V154.56L62.617 122.854L55.9817 122.765Z" fill="white"></path><path d="M75.7331 160.489L94.3232 179.087V172.533L75.6763 153.878L75.7331 160.489Z" fill="white"></path><path d="M102.656 223.146H100.114C65.4838 223.146 37.3103 194.973 37.3103 160.343V125.477C37.3103 90.8471 65.4838 62.6736 100.114 62.6736H102.656C137.286 62.6736 165.459 90.8471 165.459 125.477V160.343C165.459 194.973 137.286 223.146 102.656 223.146ZM100.114 66.6613C67.6766 66.6613 41.2898 93.048 41.2898 125.485V160.351C41.2898 192.788 67.6766 219.175 100.114 219.175H102.656C135.093 219.175 161.48 192.788 161.48 160.351V125.485C161.48 93.048 135.093 66.6613 102.656 66.6613H100.114Z" fill="white"></path><path d="M102.656 223.146H100.114C65.4838 223.146 37.3103 194.973 37.3103 160.343V125.477C37.3103 90.8471 65.4838 62.6736 100.114 62.6736H102.656C137.286 62.6736 165.459 90.8471 165.459 125.477V160.343C165.459 194.973 137.286 223.146 102.656 223.146ZM100.114 66.6613C67.6766 66.6613 41.2898 93.048 41.2898 125.485V160.351C41.2898 192.788 67.6766 219.175 100.114 219.175H102.656C135.093 219.175 161.48 192.788 161.48 160.351V125.485C161.48 93.048 135.093 66.6613 102.656 66.6613H100.114Z" fill="white"></path><path d="M56.0059 68.3018L47.6651 76.3827L36.7092 65.0776L44.9282 57.1104L46.9667 59.2138L41.5984 64.4197L43.8155 66.71L48.9402 61.7477L50.9949 63.8675L45.8703 68.8297L48.5098 71.5504L53.9999 66.2308L56.0059 68.3018Z" fill="white"></path><path d="M76.2529 56.5581L72.7119 58.353L68.3669 49.7604L66.8888 56.2008L66.369 56.4606L60.3023 53.8293L64.6473 62.4218L61.1063 64.2167L54 50.1584L57.1105 48.5828L64.2575 51.669L66.0685 44.051L69.1385 42.4998L76.2448 56.5581H76.2529Z" fill="white"></path><path d="M97.5312 45.4479C97.6936 46.6824 97.9291 48.6315 96.8165 50.4345C95.4683 52.5705 92.9831 53.5044 90.5792 53.8212C89.3691 53.9836 86.1123 54.3653 83.6434 51.9207C82.9125 51.1817 82.1978 50.1584 81.8648 47.6407L80.7278 39.0319L84.6667 38.5121L85.69 46.2519C85.7712 46.8935 85.8931 47.8113 86.2829 48.6396C87.0138 50.3127 88.7031 50.8812 90.2299 50.6781C92.4958 50.3777 93.3486 48.7534 93.5679 47.9087C93.7547 47.1859 93.6735 46.593 93.4867 45.2205L92.4633 37.4807L96.4023 36.9609L97.5312 45.456V45.4479Z" fill="white"></path><path d="M123.431 56.5094C118.241 54.8364 116.097 49.9878 117.356 46.0733C118.485 42.581 122.748 39.2918 128.466 41.1435C133.761 42.8571 135.832 47.7219 134.573 51.6365C133.453 55.1125 129.254 58.3936 123.431 56.5094ZM127.41 44.319C124.73 43.45 122.18 44.4246 121.222 47.3971C120.06 50.9786 122.692 52.9197 124.47 53.4963C126.866 54.2678 129.709 53.4395 130.667 50.4751C131.568 47.6813 130.334 45.2692 127.41 44.3271V44.319Z" fill="white"></path><path d="M140.786 64.6634L137.424 62.5437L145.83 49.2244L149.192 51.3441L140.786 64.6634Z" fill="white"></path><path d="M155.332 77.2761L146.731 68.9028L157.72 57.622L160.562 60.3915L151.62 69.5688L157.378 75.1726L155.332 77.2761Z" fill="white"></path><path d="M33.8424 218.355L32.8921 216.974L36.3763 203.5L27.7188 209.453L26.6792 207.935L37.9194 200.203L38.8127 201.502L35.3124 215.082L44.0348 209.08L45.0906 210.615L33.8505 218.346L33.8424 218.355Z" fill="white"></path><path d="M51.6285 234.931L50.0773 233.664L51.2143 229.392L46.715 225.721L42.841 227.751L41.2898 226.484L54.5197 219.557L55.5917 220.434L51.6366 234.931H51.6285ZM51.7097 227.532L53.1309 222.31L48.4205 224.844L51.7097 227.524V227.532Z" fill="white"></path><path d="M73.4265 233.038L69.1383 230.967L63.9487 241.712L62.1782 240.859L67.3679 230.115L63.1528 228.076L63.9 226.525L74.1737 231.487L73.4265 233.038Z" fill="white"></path><path d="M91.2777 243.491C91.0422 244.79 90.7011 246.666 88.9387 247.746C87.5418 248.591 85.9743 248.713 84.4394 248.437C82.5471 248.096 80.5817 247.064 79.8182 245.172C79.2822 243.856 79.5665 242.297 79.7289 241.387L81.1177 233.761L83.0506 234.11L81.6618 241.736C81.337 243.507 81.3694 244.23 81.938 245.042C82.4009 245.74 83.1887 246.431 84.748 246.715C86.9164 247.105 88.0616 246.154 88.5407 245.57C88.8818 245.147 89.1336 244.457 89.3691 243.133L90.7579 235.507L92.6664 235.856L91.2777 243.482V243.491Z" fill="white"></path><path d="M104.776 235.938C105.417 235.905 106.262 235.93 107.139 236.262C108.625 236.815 109.372 238.139 109.437 239.519C109.51 241.095 108.771 242.337 107.318 242.987C108.601 243.751 109.413 244.969 110.534 246.601C111.159 247.511 111.516 247.957 112.524 249.233L110.209 249.346C109.722 248.713 107.675 245.821 107.212 245.261C105.791 243.604 105.133 243.637 104.191 243.686L103.671 243.71L103.955 249.647L102.014 249.744L101.356 236.116L104.776 235.954V235.938ZM103.379 237.668L103.582 241.964L104.345 241.931C104.646 241.915 105.701 241.866 106.237 241.639C107.139 241.233 107.48 240.356 107.439 239.617C107.399 238.837 106.968 238.114 106.311 237.846C105.799 237.627 105.157 237.578 103.98 237.635L103.379 237.668Z" fill="white"></path><path d="M134.484 243.621L132.575 244.23L129.619 240.949L124.088 242.711L123.674 247.064L121.766 247.673L123.179 232.811L124.494 232.389L134.484 243.612V243.621ZM128.328 239.511L124.73 235.475L124.291 240.802L128.336 239.511H128.328Z" fill="white"></path><path d="M144.75 236.206L149.964 232.957L150.906 234.468L144.011 238.764L136.791 227.175L138.472 226.127L144.75 236.206Z" fill="white"></path><path d="M159.328 225.104L163.697 220.791L164.948 222.058L159.165 227.767L149.582 218.054L150.995 216.665L159.328 225.112V225.104Z" fill="white"></path><path d="M167.295 206.968L173.321 210.956L172.216 212.629L166.19 208.641L158.052 209.307L159.352 207.342L165.297 206.879L163.413 201.194L164.712 199.228L167.287 206.976L167.295 206.968Z" fill="white"></path></g><defs><clipPath id="clip0_49_142"><rect width="200" height="282.165" fill="white"></rect></clipPath></defs></svg>